<?xml version="1.0" encoding="utf-8"?>
<!-- Generator: Adobe Illustrator 22.0.1, SVG Export Plug-In . SVG Version: 6.00 Build 0)  -->
<svg version="1.1" id="Camada_1" xmlns="http://www.w3.org/2000/svg" xmlns:xlink="http://www.w3.org/1999/xlink" x="0px" y="0px"
	 viewBox="0 0 188 32" style="enable-background:new 0 0 188 32;" xml:space="preserve">
<style type="text/css">
	.st0{fill:#F3BA2F;}
</style>
<g>
	<path class="st0" d="M14,13.6l5.8-5.8l5.8,5.8l3.4-3.4l-9.2-9.2l-9.2,9.2L14,13.6z"/>
	<path class="st0" d="M4.9,16l3.4-3.4l3.4,3.4l-3.4,3.4L4.9,16z"/>
	<path class="st0" d="M14,18.4l5.8,5.8l5.8-5.8l3.4,3.4l0,0l-9.2,9.2l-9.2-9.2l0,0L14,18.4z"/>
	<path class="st0" d="M28,16l3.4-3.4l3.4,3.4l-3.4,3.4L28,16z"/>
	<path class="st0" d="M23.2,16l-3.4-3.4l-2.5,2.5L17,15.4L16.4,16l0,0l0,0l3.4,3.4L23.2,16L23.2,16L23.2,16z"/>
	<g transform="translate(.55)">
		<path class="st0" d="M39.5,8.3h7.3c1.8,0,3.2,0.5,4.1,1.4c0.7,0.7,1.1,1.7,1.1,2.7v0c0,0.4-0.1,0.8-0.2,1.2
			c-0.1,0.3-0.3,0.7-0.5,0.9c-0.2,0.3-0.4,0.5-0.7,0.7c-0.2,0.2-0.5,0.4-0.8,0.5c0.8,0.3,1.6,0.8,2.2,1.4c0.5,0.6,0.8,1.4,0.8,2.5v0
			c0,0.7-0.1,1.3-0.4,1.9c-0.3,0.5-0.7,1-1.2,1.4c-0.6,0.4-1.2,0.7-1.9,0.8c-0.8,0.2-1.6,0.3-2.4,0.3h-7.5L39.5,8.3z M46.1,14.7
			c0.6,0,1.3-0.1,1.8-0.4c0.5-0.3,0.7-0.8,0.7-1.3v0c0-0.5-0.2-0.9-0.6-1.2c-0.4-0.3-1-0.4-1.7-0.4h-3.4v3.3H46.1z M47,21.1
			c0.6,0,1.3-0.1,1.8-0.4c0.4-0.3,0.7-0.8,0.7-1.3v0c0-0.5-0.2-1-0.6-1.3c-0.4-0.3-1.1-0.5-2-0.5h-4v3.5L47,21.1z"/>
		<path class="st0" d="M57.3,8.3h3.5v15.8h-3.5V8.3z"/>
		<path class="st0" d="M66,8.3h3.2l7.4,9.7V8.3h3.4v15.8h-3l-7.7-10.1v10.1H66V8.3z"/>
		<path class="st0" d="M90.6,8.2h3.2l6.8,16H97l-1.4-3.6h-6.7l-1.4,3.6h-3.6L90.6,8.2z M94.3,17.5l-2.1-5.1l-2.1,5.1H94.3z"/>
		<path class="st0" d="M104.4,8.3h3.2l7.4,9.7V8.3h3.4v15.8h-3l-7.7-10.1v10.1h-3.4L104.4,8.3z"/>
		<path class="st0" d="M131,24.4c-1.1,0-2.2-0.2-3.2-0.6c-1.9-0.8-3.5-2.4-4.3-4.3c-0.4-1-0.6-2.1-0.6-3.2v0c0-2.2,0.8-4.2,2.3-5.8
			c0.7-0.8,1.6-1.4,2.6-1.8c1.1-0.4,2.2-0.7,3.3-0.6c0.7,0,1.4,0.1,2,0.2c0.6,0.1,1.1,0.3,1.7,0.5c0.5,0.2,0.9,0.5,1.4,0.8
			c0.4,0.3,0.8,0.6,1.2,1l-2.2,2.6c-0.6-0.5-1.2-1-1.9-1.3c-0.7-0.3-1.4-0.5-2.2-0.5c-1.3,0-2.5,0.5-3.3,1.4c-0.4,0.5-0.7,1-1,1.6
			c-0.2,0.6-0.3,1.3-0.3,1.9v0c0,0.7,0.1,1.3,0.3,1.9c0.2,0.6,0.5,1.1,0.9,1.6c0.8,0.9,2,1.5,3.3,1.5c0.8,0,1.6-0.1,2.3-0.5
			c0.7-0.4,1.3-0.8,1.9-1.4l2.2,2.2c-0.4,0.4-0.8,0.8-1.3,1.2c-0.4,0.4-0.9,0.7-1.4,0.9c-0.5,0.3-1.1,0.4-1.7,0.6
			C132.4,24.4,131.7,24.4,131,24.4z"/>
		<path class="st0" d="M141.6,8.3h11.9v3.1H145v3.2h7.5v3.1h-7.5V21h8.6v3.1h-12L141.6,8.3z"/>
	</g>
</g>
</svg>
