<svg width="119" height="34" viewBox="0 0 119 34" fill="none" xmlns="http://www.w3.org/2000/svg">
<path d="M9.47546 0.943385C9.32293 0.418022 7.75532 0 7.28927 0C4.1738 0 0.264648 5.15196 0.264648 9.22777C0.264648 10.9705 1.63738 12.7387 3.02988 13.3149C3.60044 13.5521 3.9902 13.5493 4.13425 13.3488C4.27265 13.1567 4.20205 12.7952 3.86593 12.3009C3.26713 11.4196 3.06093 9.77854 3.04115 8.8295C2.99596 6.84385 4.36869 3.31885 5.90524 2.13819C6.04364 2.03086 6.28937 1.85572 6.28937 2.18901C6.28937 8.12336 6.28937 14.0436 6.28937 19.9751C6.28937 20.9072 6.06342 22.2912 5.877 23.3278C5.81768 23.6611 5.12003 25.3982 5.67364 25.3982C6.18488 25.3982 7.26385 24.6638 7.65082 24.2543C8.39932 23.4578 8.93032 22.4099 9.22407 21.3196C9.39919 20.6671 9.48959 19.139 9.48959 18.4979V0.98576C9.48112 0.971637 9.47828 0.960332 9.47546 0.943385Z" fill="#8C8A97"/>
<path d="M118.2 17.1393C118.104 17.0546 117.986 16.9953 117.85 16.9953C117.59 16.9953 117.423 17.1421 117.37 17.3568C117.265 17.7804 117.116 18.464 116.969 18.9357C116.715 19.7576 116.33 20.5457 115.686 20.5457C114.497 20.5457 114.232 18.2578 114.175 17.5178C114.105 16.6026 114.099 15.5632 114.076 14.761V11.8885L114.192 10.383C114.22 10.013 114.28 9.73055 114.184 9.37183C114.102 9.06678 113.921 8.80126 113.678 8.61484C113.167 8.22506 111.783 7.74207 111.258 7.74207C110.964 7.74207 110.698 7.86069 110.506 8.05276C110.297 8.26178 110.136 8.64592 110.029 8.90578C109.758 9.55825 109.523 10.1457 109.323 10.7022C109.074 11.3857 108.744 12.4816 108.473 13.5436C108.286 14.278 108.162 14.9361 108.049 15.662C108.032 15.7694 108.032 15.8005 108.015 15.9078C108.015 15.9106 108.007 15.9812 107.995 16.0038C107.97 16.0688 107.891 16.0518 107.879 15.984C107.865 15.8965 107.857 15.823 107.851 15.7355C107.707 14.0464 107.557 12.2896 107.6 10.5864C107.611 10.1486 107.622 9.62601 107.538 9.30684C107.464 9.03568 107.329 8.78997 107.145 8.58943C106.707 8.10644 105.95 7.87763 105.337 7.79572C105.035 7.75618 104.674 7.6884 104.405 7.84658C104.151 7.99628 103.948 8.40582 103.829 8.64308C103.058 10.1881 102.439 12.25 101.869 13.9645L101.889 9.01028C101.889 8.8973 101.897 8.70241 101.869 8.58943C101.832 8.4482 101.747 8.32393 101.634 8.23919C101.595 8.21095 101.448 8.14031 101.326 8.10641C100.821 7.96519 100.346 7.86354 99.821 7.78727C99.7052 7.77033 99.5301 7.74207 99.4143 7.74207C99.2222 7.74207 99.064 7.85504 98.9849 8.01604C98.8324 8.31544 98.8409 13.9221 98.855 16.2298C98.7787 16.8568 98.6601 17.6788 98.4257 18.4527C98.228 19.1052 97.5614 20.444 96.7733 20.5994C95.9401 20.766 95.4599 19.9017 95.2735 18.5657C95.0306 16.3795 95.1351 12.2698 95.2707 9.9565C95.3356 8.83516 95.5446 8.41147 94.3583 8.10924C93.5533 7.90305 93.0675 7.872 92.7342 7.92002C92.3896 7.97086 92.2286 8.38607 92.2851 9.12045C91.2598 7.55 89.7826 7.32684 88.7516 7.437C86.331 7.69968 84.6052 11.2417 84.3087 13.9306C84.1279 15.5689 84.2832 17.0602 84.4838 18.3002C84.4245 19.1306 84.2973 20.6332 82.806 20.5513C81.5745 20.4835 80.8684 18.4612 81.0859 15.7524C81.2243 14.0323 81.7891 11.6089 81.9558 10.8039C82.3173 9.0357 81.2835 8.69675 79.8317 8.88881C79.0691 8.9905 78.0184 9.21083 76.8604 9.40573C77.1033 8.516 77.01 7.56411 76.3209 7.23647C75.691 6.93707 74.6007 6.9964 73.9878 7.67428C73.115 8.63463 72.8862 10.3491 74.2109 11.2162C74.0499 12.5522 72.5332 16.1846 70.6097 18.7295C70.6407 17.2692 70.7904 10.7022 70.7142 8.95098C70.6859 8.31828 70.1238 8.07255 69.6098 7.96239C69.5307 7.94545 68.8697 7.88329 68.8697 7.87482C68.5195 7.84657 68.189 7.89176 67.9546 8.081C67.6552 8.32109 67.6693 8.60071 67.7089 9.13455C66.6129 7.45677 65.0764 7.3184 63.9776 7.53871C61.67 7.99911 60.0487 11.2868 59.7578 13.9334C59.642 14.9983 59.6335 16.0462 59.6956 16.9953C59.7211 17.3737 59.755 17.7324 59.8058 18.077C59.4386 19.4017 58.82 20.4355 58.0376 20.605C57.2072 20.7858 56.7242 19.9073 56.5378 18.5713C56.2949 16.3851 56.3994 12.2754 56.535 9.96215C56.5999 8.84081 56.809 8.41712 55.6227 8.11489C54.8177 7.9087 54.3318 7.87766 53.9986 7.92567C53.654 7.97651 53.493 8.39172 53.5495 9.1261C52.5242 7.55566 51.0469 7.3325 50.016 7.44265C47.5953 7.70534 45.8695 11.2473 45.573 13.9363C45.4685 14.8825 45.4769 15.7807 45.5391 16.6083C45.3527 17.1817 45.0561 17.9019 44.8273 18.3313C43.3642 21.0908 41.7344 20.7632 41.4774 17.4076C41.3983 16.3767 41.3785 15.2892 41.3785 14.2526C41.4605 11.863 41.5452 9.4707 41.6271 7.08114C42.9433 7.09244 44.2765 7.08396 45.6577 7.04159C46.2169 7.02464 46.5785 5.19151 46.0588 5.15479C44.6041 5.0531 43.1551 4.9599 41.7033 4.87799L41.8361 1.04507C41.8361 1.03378 41.8361 1.0225 41.8276 0.994251C41.7514 0.728744 41.5452 0.621413 41.2938 0.536677C40.9972 0.440643 40.5255 0.290937 40.0736 0.177956C39.424 0.0169574 38.5427 -0.209007 38.4749 0.776756C38.4241 1.51678 38.3704 3.01379 38.3224 4.70004C37.3112 4.65202 36.2944 4.60967 35.2691 4.57012C34.6703 4.54753 33.9698 6.92011 34.9273 6.94271C36.0571 6.96813 37.1643 6.99638 38.2687 7.0218C38.2348 8.61201 38.1021 12.0495 38.1049 15.0181C37.5315 16.5066 36.735 17.9358 35.7662 18.6984C36.043 17.7268 35.9441 15.8541 33.8088 14.2046C33.0518 13.6199 32.1451 12.9279 30.8741 11.9732C31.6678 11.0016 32.5264 9.62602 32.5462 8.56964C32.5575 7.91717 32.0576 7.29861 30.9362 7.30708C28.911 7.3212 27.5553 9.20799 27.5609 10.7643C27.5637 11.7444 28.1879 12.4365 28.4591 12.798C25.1911 18.9159 24.468 19.6644 23.841 19.6644C23.4342 19.6644 23.2478 18.7775 23.2789 16.0434C23.3071 13.5973 23.4766 11.9478 23.4795 9.96215C23.4795 9.13174 22.9597 8.65723 22.4259 8.35218C22.1293 8.18271 20.8442 7.70534 20.46 7.69404C19.8979 7.67709 19.0901 8.194 18.4179 8.94533C16.8503 10.6937 15.9775 13.3629 15.2375 15.5858L15.2572 9.01311C15.2572 8.90013 15.2657 8.70524 15.2375 8.59226C15.1668 8.3098 14.9606 8.18268 14.698 8.10924C14.2008 7.97084 13.3026 7.7449 12.7857 7.7449C12.5937 7.7449 12.4638 7.87763 12.4044 8.03863C12.3536 8.17703 12.3931 11.2897 12.3762 14.5407C12.3649 16.6845 12.348 18.7493 12.3875 20.0994C12.4299 21.5286 12.4581 22.4325 14.2856 22.4409C15.1386 22.4438 15.3278 22.4664 15.4465 21.7518C15.8589 19.3142 17.2033 13.3968 20.1522 10.2474C20.2454 10.1599 20.4148 10.2135 20.4035 10.4112C20.2058 13.5662 19.977 17.3116 20.3979 20.3734C20.5165 21.2433 21.0362 22.5681 22.0983 22.5681C23.5247 22.5681 24.5641 22.2432 27.2813 17.8765C27.945 16.8088 28.6992 15.518 29.6115 13.9306C30.168 14.4391 30.7357 14.9361 31.2836 15.453C32.2892 16.3964 32.8456 17.3907 32.8682 18.3002C32.8936 19.4215 32.3174 20.3734 31.4051 20.3706C30.1228 20.3649 29.4816 19.1221 28.7105 19.1249C27.8998 19.1278 27.2502 20.5485 27.2559 21.1614C27.2643 21.8619 29.0975 22.6726 31.4559 22.6669C33.2439 22.6641 34.6589 21.9721 35.8763 20.8903C36.8338 20.0373 37.8027 18.3736 38.3422 17.0207C38.4326 19.3763 39.7177 22.4325 41.9237 22.4325C42.9716 22.4325 43.9856 21.7292 44.768 20.7349C45.2934 20.0683 45.5956 19.5402 45.9119 18.7662C46.1124 19.4272 46.3949 20.1559 46.618 20.492C47.2762 21.4919 48.1546 22.3929 49.4567 22.4777C50.9396 22.5737 51.931 22.037 52.7021 21.2942C53.2924 20.7265 53.6257 20.2406 54.0551 19.4921C54.2189 21.023 55.6594 22.489 57.3993 22.4551C59.0178 22.424 59.803 21.1671 60.2549 19.7153C60.4103 20.0796 60.608 20.4299 60.8594 20.7688C62.7631 23.3476 65.8588 22.8505 67.8218 20.2661C67.8331 20.8649 67.8444 21.4467 67.8473 21.6134C66.1186 23.2714 64.1556 24.8023 62.7094 26.6269C61.7999 27.7765 61.4242 29.0532 61.4779 29.9881C61.5881 31.8608 63.6133 33.1544 65.4294 33.1544C68.9996 33.1544 70.1238 30.4767 70.6548 26.7483C70.9401 24.7514 70.7141 22.7093 70.7593 20.8959C72.9286 18.3821 75.5582 14.3713 76.3237 11.2021L78.4364 11.1484C78.5381 11.1456 78.6765 11.1598 78.75 11.2332C78.8093 11.2925 78.7471 11.4648 78.7048 11.6823C78.1511 14.487 77.4027 17.755 78.8036 20.3338C79.4759 21.571 80.5238 22.4466 81.9869 22.472C83.3426 22.4946 84.5629 21.3563 85.1956 20.2378C85.8706 21.3337 86.7829 22.3845 88.1952 22.4749C89.6781 22.5709 90.6695 22.0342 91.4406 21.2914C92.0309 20.7236 92.3642 20.2378 92.7935 19.4893C92.8839 19.7802 92.9659 20.2434 93.0986 20.5005C93.6805 21.6049 94.7651 22.4268 95.7791 22.4664C97.8636 22.5483 98.372 21.1727 98.8776 20.1333C98.8861 20.5598 98.9426 21.4298 99.0103 21.7433C99.0442 21.9015 99.1572 22.0173 99.3013 22.0879C99.821 22.3477 100.519 22.4325 101.165 22.4297C101.561 22.4268 102.112 22.4833 102.357 22.1161C102.499 21.9071 102.49 21.4495 102.501 21.1982C102.549 20.2068 102.583 18.5346 102.648 17.8822C102.86 16.0829 103.103 15.1056 103.575 13.9476C103.866 13.2301 104.117 12.476 104.702 11.4874C104.73 11.4394 104.781 11.4027 104.84 11.4027C104.95 11.4027 104.996 11.4987 104.996 11.5778C105.012 12.3912 105.027 13.1341 105.063 13.8289C105.162 15.7524 105.32 17.3144 105.617 18.9922C105.671 19.3029 105.727 19.656 105.826 19.9582C106.094 20.7773 106.865 21.3676 107.772 21.3676C108.049 21.3676 108.312 21.314 108.552 21.2151C108.622 21.1868 108.687 21.153 108.749 21.1106C108.874 21.0287 108.939 20.9468 108.97 20.7999C108.989 20.7067 108.987 20.5937 108.989 20.4949C108.992 20.4129 108.995 20.331 108.998 20.2491C109.052 18.7973 109.184 17.5856 109.481 16.3287C109.953 14.3204 110.546 12.4421 111.178 11.3066C111.201 11.2643 111.224 11.2106 111.277 11.2106C111.323 11.2106 111.351 11.2416 111.356 11.2868C111.362 11.3264 111.356 11.3885 111.354 11.4168C111.283 12.0438 111.263 12.6822 111.26 13.3177C111.258 14.2865 111.258 15.2553 111.311 16.2242C111.376 17.3737 111.503 18.4922 111.738 19.3339C111.854 19.7548 111.998 20.1248 112.164 20.4525C112.738 21.5682 113.754 22.4297 115.068 22.4297C116.627 22.4297 117.607 21.2546 118.014 19.8734C118.11 19.5458 118.197 19.2294 118.26 18.882C118.316 18.5261 118.48 17.385 118.2 17.1393ZM53.4223 15.535C53.315 19.2238 51.6683 20.7377 50.4425 20.509C48.9539 20.2322 48.4738 18.2606 48.711 14.7215C48.9257 11.5128 50.0725 9.78137 51.3576 9.77572C53.3715 9.77007 53.6257 13.3205 53.4223 15.535ZM67.6072 15.535C67.4998 19.2238 65.8531 20.7377 64.6273 20.509C63.1387 20.2322 62.6586 18.2606 62.8958 14.7215C63.2037 10.1062 65.9605 8.53577 67.2089 10.7107C67.7343 11.6286 67.675 13.233 67.6072 15.535ZM66.2401 31.5642C64.8561 32.3042 63.3139 31.1433 63.8449 29.3046C64.342 27.5844 66.7372 25.1214 67.9941 23.695C68.0224 25.5875 68.1664 30.5304 66.2401 31.5642ZM92.158 15.535C92.0507 19.2238 90.404 20.7377 89.1781 20.509C87.6896 20.2322 87.2094 18.2606 87.4467 14.7215C87.6614 11.5128 88.8081 9.78137 90.0933 9.77572C92.1072 9.77007 92.3614 13.3205 92.158 15.535Z" fill="#8C8A97"/>
</svg>
