<svg width="188" height="32" viewBox="0 0 188 32" fill="none" xmlns="http://www.w3.org/2000/svg">
<path opacity="0.6" d="M46.1873 -4.03742e-07L55.4238 16L36.9508 16L46.1873 -4.03742e-07Z" fill="white"/>
<path opacity="0.4" d="M46.1873 32L55.4238 16L36.9508 16L46.1873 32Z" fill="white"/>
<path opacity="0.7" d="M27.7144 32L46.1875 32L36.951 16" fill="white"/>
<path opacity="0.4" d="M27.7146 -4.03742e-07L18.4738 16L36.9512 16L27.7146 -4.03742e-07Z" fill="white"/>
<path opacity="0.6" d="M36.9512 16L18.4738 16L27.7146 32L36.9512 16Z" fill="white"/>
<path opacity="0.7" d="M27.7148 0L9.23748 -8.07671e-07L18.474 16L27.7148 0Z" fill="white"/>
<path opacity="0.4" d="M9.23612 -4.03742e-07L-0.000417969 16L18.4727 16L9.23612 -4.03742e-07Z" fill="white"/>
<path opacity="0.6" d="M18.4727 16L-0.00041727 16L9.23612 32L18.4727 16Z" fill="white"/>
<path d="M84.5702 16.3326C84.5198 16.9071 84.3837 17.4413 84.162 17.9352C83.9503 18.419 83.653 18.8423 83.27 19.2052C82.897 19.558 82.4334 19.8351 81.879 20.0367C81.3348 20.2383 80.6998 20.3391 79.9741 20.3391C79.1577 20.3391 78.437 20.203 77.8121 19.9309C77.1973 19.6587 76.6782 19.2757 76.2549 18.7819C75.8416 18.288 75.5292 17.6933 75.3175 16.9978C75.1058 16.2923 75 15.5162 75 14.6695C75 13.7927 75.1159 13.0065 75.3477 12.311C75.5796 11.6156 75.9122 11.0209 76.3456 10.527C76.779 10.0331 77.3031 9.65515 77.9179 9.39309C78.5328 9.13103 79.2282 9 80.0043 9C80.6897 9 81.2844 9.08567 81.7883 9.25702C82.3024 9.42837 82.7307 9.67531 83.0734 9.99784C83.4262 10.3204 83.7084 10.7084 83.9201 11.162C84.1317 11.6156 84.288 12.1246 84.3888 12.689L82.1512 12.9762C82.0403 12.3413 81.8236 11.8423 81.5011 11.4795C81.1886 11.1166 80.6897 10.9352 80.0043 10.9352C79.1375 10.9352 78.4773 11.2628 78.0238 11.9179C77.5803 12.563 77.3585 13.4802 77.3585 14.6695C77.3585 15.869 77.5954 16.7912 78.0691 17.4363C78.5529 18.0814 79.198 18.4039 80.0043 18.4039C80.6998 18.4039 81.2088 18.2275 81.5313 17.8747C81.8639 17.5119 82.0706 16.9978 82.1512 16.3326H84.5702Z" fill="white"/>
<path d="M89.6787 20.3089C88.4087 20.3089 87.426 19.946 86.7305 19.2203C86.0351 18.4946 85.6873 17.4564 85.6873 16.1058C85.6873 15.4608 85.778 14.8812 85.9595 14.3672C86.151 13.8431 86.4181 13.4046 86.7608 13.0518C87.1135 12.689 87.5369 12.4118 88.0307 12.2203C88.5246 12.0288 89.0739 11.933 89.6787 11.933C90.2935 11.933 90.8479 12.0288 91.3418 12.2203C91.8356 12.4118 92.2539 12.689 92.5966 13.0518C92.9494 13.4046 93.2165 13.8431 93.3979 14.3672C93.5793 14.8812 93.6701 15.4608 93.6701 16.1058C93.6701 16.761 93.5743 17.3506 93.3828 17.8747C93.2014 18.3888 92.9343 18.8272 92.5815 19.1901C92.2388 19.5529 91.8205 19.8301 91.3266 20.0216C90.8328 20.2131 90.2834 20.3089 89.6787 20.3089ZM89.6787 18.6156C90.2834 18.6156 90.732 18.3988 91.0243 17.9654C91.3266 17.532 91.4778 16.9122 91.4778 16.1058C91.4778 15.2995 91.3266 14.6847 91.0243 14.2613C90.732 13.838 90.2834 13.6263 89.6787 13.6263C89.0739 13.6263 88.6204 13.838 88.318 14.2613C88.0257 14.6847 87.8796 15.2995 87.8796 16.1058C87.8796 16.9222 88.0257 17.5472 88.318 17.9806C88.6103 18.4039 89.0639 18.6156 89.6787 18.6156Z" fill="white"/>
<path d="M95.2758 12.1749H97.332V13.2333C97.6243 12.7898 97.967 12.4622 98.3601 12.2505C98.7532 12.0389 99.1664 11.933 99.5998 11.933C100.174 11.933 100.643 12.049 101.006 12.2808C101.369 12.5126 101.626 12.8503 101.777 13.2937C102.14 12.8099 102.523 12.4622 102.926 12.2505C103.329 12.0389 103.773 11.933 104.256 11.933C105.073 11.933 105.683 12.1598 106.086 12.6134C106.499 13.0569 106.706 13.7826 106.706 14.7905V20.067H104.589V15.0778C104.589 14.7955 104.564 14.5688 104.513 14.3974C104.463 14.216 104.392 14.0749 104.302 13.9741C104.221 13.8733 104.12 13.8027 103.999 13.7624C103.878 13.7221 103.752 13.7019 103.621 13.7019C103.41 13.7019 103.213 13.7372 103.032 13.8078C102.86 13.8783 102.689 13.9993 102.518 14.1706C102.377 14.3117 102.261 14.473 102.17 14.6544C102.089 14.8359 102.049 15.0274 102.049 15.2289V20.067H99.9324V15.0778C99.9324 14.7955 99.9072 14.5688 99.8568 14.3974C99.8064 14.216 99.7359 14.0749 99.6452 13.9741C99.5645 13.8733 99.4637 13.8027 99.3428 13.7624C99.2218 13.7221 99.0958 13.7019 98.9648 13.7019C98.7532 13.7019 98.5566 13.7372 98.3752 13.8078C98.2038 13.8783 98.0325 13.9993 97.8611 14.1706C97.72 14.3117 97.6041 14.4831 97.5134 14.6847C97.4328 14.8762 97.3925 15.0878 97.3925 15.3197V20.067H95.2758V12.1749Z" fill="white"/>
<path d="M108.505 12.1749H110.561V13.2181C111.166 12.3614 111.992 11.933 113.04 11.933C114.139 11.933 114.96 12.306 115.505 13.0518C116.049 13.7977 116.321 14.8207 116.321 16.121C116.321 16.7459 116.241 17.3153 116.079 17.8294C115.928 18.3434 115.701 18.7869 115.399 19.1598C115.107 19.5227 114.749 19.8049 114.326 20.0065C113.902 20.2081 113.423 20.3089 112.889 20.3089C112.496 20.3089 112.103 20.2383 111.71 20.0972C111.327 19.9561 110.964 19.6739 110.621 19.2505V23H108.505V12.1749ZM110.606 16.1814C110.606 16.6955 110.647 17.1087 110.727 17.4212C110.818 17.7235 110.959 17.9705 111.151 18.162C111.352 18.3434 111.554 18.4644 111.755 18.5248C111.967 18.5752 112.179 18.6004 112.39 18.6004C112.622 18.6004 112.844 18.5551 113.056 18.4644C113.267 18.3736 113.449 18.2325 113.6 18.041C113.761 17.8395 113.887 17.5824 113.978 17.27C114.068 16.9575 114.114 16.5796 114.114 16.1361C114.114 15.6724 114.068 15.2844 113.978 14.9719C113.897 14.6595 113.781 14.4075 113.63 14.216C113.479 14.0144 113.297 13.8733 113.086 13.7927C112.884 13.7019 112.667 13.6566 112.436 13.6566C112.174 13.6566 111.947 13.6919 111.755 13.7624C111.564 13.833 111.377 13.9438 111.196 14.095C110.994 14.2865 110.843 14.5284 110.742 14.8207C110.652 15.113 110.606 15.486 110.606 15.9395V16.1814Z" fill="white"/>
<path d="M122.611 19.0691C122.299 19.4219 121.946 19.7091 121.553 19.9309C121.17 20.1526 120.671 20.2635 120.056 20.2635C119.703 20.2635 119.366 20.2181 119.043 20.1274C118.731 20.0367 118.454 19.8956 118.212 19.7041C117.98 19.5126 117.793 19.2707 117.652 18.9784C117.511 18.676 117.441 18.3182 117.441 17.905C117.441 17.3607 117.562 16.9172 117.804 16.5745C118.045 16.2318 118.363 15.9647 118.756 15.7732C119.149 15.5817 119.588 15.4456 120.071 15.365C120.565 15.2844 121.064 15.234 121.568 15.2138L122.581 15.1685V14.7754C122.581 14.2916 122.445 13.959 122.173 13.7775C121.911 13.5961 121.598 13.5054 121.236 13.5054C120.399 13.5054 119.92 13.8229 119.799 14.4579L117.864 14.2765C118.005 13.45 118.368 12.8553 118.953 12.4924C119.537 12.1195 120.323 11.933 121.311 11.933C121.916 11.933 122.43 12.0086 122.853 12.1598C123.277 12.3009 123.614 12.5076 123.866 12.7797C124.128 13.0518 124.315 13.3844 124.426 13.7775C124.547 14.1605 124.607 14.594 124.607 15.0778V20.067H122.611V19.0691ZM122.566 16.5443L121.629 16.5896C121.185 16.6098 120.827 16.6551 120.555 16.7257C120.283 16.7963 120.071 16.887 119.92 16.9978C119.779 17.0986 119.683 17.2196 119.633 17.3607C119.583 17.5018 119.557 17.658 119.557 17.8294C119.557 18.0914 119.648 18.2981 119.829 18.4492C120.011 18.6004 120.263 18.676 120.585 18.676C121.13 18.676 121.573 18.55 121.916 18.2981C122.107 18.1569 122.264 17.9806 122.385 17.7689C122.505 17.5472 122.566 17.275 122.566 16.9525V16.5443Z" fill="white"/>
<path d="M126.399 12.1749H128.455V13.2635C128.768 12.7999 129.136 12.4622 129.559 12.2505C129.993 12.0389 130.441 11.933 130.905 11.933C131.802 11.933 132.467 12.1699 132.9 12.6436C133.334 13.1073 133.55 13.8431 133.55 14.851V20.067H131.434V15.1382C131.434 14.5839 131.328 14.2059 131.116 14.0043C130.905 13.8027 130.622 13.7019 130.27 13.7019C129.998 13.7019 129.761 13.7423 129.559 13.8229C129.368 13.9035 129.186 14.0194 129.015 14.1706C128.874 14.3117 128.753 14.4831 128.652 14.6847C128.561 14.8762 128.516 15.0878 128.516 15.3197V20.067H126.399V12.1749Z" fill="white"/>
<path d="M135.411 21.1857C135.703 21.2664 136 21.3067 136.303 21.3067C136.585 21.3067 136.812 21.2361 136.983 21.095C137.154 20.964 137.3 20.7271 137.421 20.3844L137.663 19.7192L134.382 12.1749H136.832L138.676 17.3607L140.4 12.1749H142.713L139.523 20.2937C139.341 20.7473 139.17 21.1404 139.009 21.473C138.848 21.8157 138.661 22.0979 138.449 22.3197C138.248 22.5515 138.001 22.7228 137.709 22.8337C137.426 22.9446 137.074 23 136.65 23C136.388 23 136.126 22.9798 135.864 22.9395C135.612 22.9093 135.345 22.8488 135.063 22.7581L135.411 21.1857Z" fill="white"/>
<path d="M147.31 9.27214H149.336L153.78 16.3477V9.27214H155.973V20.067H153.962L149.502 13.0518V20.067H147.31V9.27214Z" fill="white"/>
<path d="M162.697 19.0691C162.384 19.4219 162.032 19.7091 161.638 19.9309C161.255 20.1526 160.757 20.2635 160.142 20.2635C159.789 20.2635 159.451 20.2181 159.129 20.1274C158.816 20.0367 158.539 19.8956 158.297 19.7041C158.065 19.5126 157.879 19.2707 157.738 18.9784C157.597 18.676 157.526 18.3182 157.526 17.905C157.526 17.3607 157.647 16.9172 157.889 16.5745C158.131 16.2318 158.448 15.9647 158.841 15.7732C159.235 15.5817 159.673 15.4456 160.157 15.365C160.651 15.2844 161.15 15.234 161.654 15.2138L162.667 15.1685V14.7754C162.667 14.2916 162.53 13.959 162.258 13.7775C161.996 13.5961 161.684 13.5054 161.321 13.5054C160.484 13.5054 160.006 13.8229 159.885 14.4579L157.949 14.2765C158.091 13.45 158.453 12.8553 159.038 12.4924C159.623 12.1195 160.409 11.933 161.397 11.933C162.001 11.933 162.515 12.0086 162.939 12.1598C163.362 12.3009 163.7 12.5076 163.952 12.7797C164.214 13.0518 164.4 13.3844 164.511 13.7775C164.632 14.1605 164.692 14.594 164.692 15.0778V20.067H162.697V19.0691ZM162.651 16.5443L161.714 16.5896C161.271 16.6098 160.913 16.6551 160.641 16.7257C160.368 16.7963 160.157 16.887 160.006 16.9978C159.865 17.0986 159.769 17.2196 159.718 17.3607C159.668 17.5018 159.643 17.658 159.643 17.8294C159.643 18.0914 159.733 18.2981 159.915 18.4492C160.096 18.6004 160.348 18.676 160.671 18.676C161.215 18.676 161.659 18.55 162.001 18.2981C162.193 18.1569 162.349 17.9806 162.47 17.7689C162.591 17.5472 162.651 17.275 162.651 16.9525V16.5443Z" fill="white"/>
<path d="M166.485 12.1749H168.541V13.2333C168.833 12.7898 169.176 12.4622 169.569 12.2505C169.962 12.0389 170.375 11.933 170.809 11.933C171.383 11.933 171.852 12.049 172.215 12.2808C172.578 12.5126 172.835 12.8503 172.986 13.2937C173.349 12.8099 173.732 12.4622 174.135 12.2505C174.538 12.0389 174.982 11.933 175.465 11.933C176.282 11.933 176.892 12.1598 177.295 12.6134C177.708 13.0569 177.915 13.7826 177.915 14.7905V20.067H175.798V15.0778C175.798 14.7955 175.773 14.5688 175.722 14.3974C175.672 14.216 175.601 14.0749 175.511 13.9741C175.43 13.8733 175.329 13.8027 175.208 13.7624C175.087 13.7221 174.961 13.7019 174.83 13.7019C174.619 13.7019 174.422 13.7372 174.241 13.8078C174.069 13.8783 173.898 13.9993 173.727 14.1706C173.586 14.3117 173.47 14.473 173.379 14.6544C173.298 14.8359 173.258 15.0274 173.258 15.2289V20.067H171.141V15.0778C171.141 14.7955 171.116 14.5688 171.066 14.3974C171.015 14.216 170.945 14.0749 170.854 13.9741C170.773 13.8733 170.673 13.8027 170.552 13.7624C170.431 13.7221 170.305 13.7019 170.174 13.7019C169.962 13.7019 169.766 13.7372 169.584 13.8078C169.413 13.8783 169.241 13.9993 169.07 14.1706C168.929 14.3117 168.813 14.4831 168.722 14.6847C168.642 14.8762 168.601 15.0878 168.601 15.3197V20.067H166.485V12.1749Z" fill="white"/>
<path d="M186.94 17.6026C186.799 18.4896 186.442 19.1649 185.867 19.6285C185.303 20.0821 184.476 20.3089 183.388 20.3089C182.077 20.3089 181.089 19.946 180.424 19.2203C179.769 18.4946 179.442 17.4665 179.442 16.1361C179.442 15.4708 179.537 14.8812 179.729 14.3672C179.92 13.8431 180.187 13.3996 180.53 13.0367C180.883 12.6739 181.301 12.4017 181.785 12.2203C182.269 12.0288 182.803 11.933 183.388 11.933C184.597 11.933 185.504 12.2808 186.109 12.9762C186.724 13.6717 187.031 14.6091 187.031 15.7883V16.635H181.558C181.578 17.27 181.74 17.7689 182.042 18.1317C182.344 18.4845 182.798 18.6609 183.403 18.6609C184.239 18.6609 184.733 18.3081 184.884 17.6026H186.94ZM184.99 15.2441C184.99 14.6998 184.854 14.2765 184.582 13.9741C184.32 13.6717 183.907 13.5205 183.342 13.5205C183.06 13.5205 182.813 13.5659 182.601 13.6566C182.39 13.7473 182.208 13.8733 182.057 14.0346C181.916 14.1857 181.805 14.3672 181.724 14.5788C181.644 14.7804 181.598 15.0022 181.588 15.2441H184.99Z" fill="white"/>
</svg>
