<svg width="117" height="23" viewBox="0 0 117 23" fill="none" xmlns="http://www.w3.org/2000/svg">
<path d="M103.01 0.871913C104.508 -0.102746 106.442 -0.193484 108.13 0.270918C108.145 1.27387 108.132 2.2778 108.137 3.28173C107.335 2.92855 106.392 2.6983 105.548 3.04465C104.879 3.31002 104.48 3.99687 104.376 4.68372C104.25 5.55496 104.332 6.43791 104.311 7.31403C106.024 7.31793 107.737 7.315 109.45 7.31598C109.463 6.20376 109.437 5.09055 109.465 3.97833C110.63 3.64662 111.782 3.2749 112.941 2.92562C112.951 4.39103 112.928 5.85741 112.954 7.32379C114.112 7.3072 115.271 7.31988 116.43 7.31598V10.1687C115.267 10.1209 114.103 10.1561 112.94 10.1522C112.945 11.7922 112.941 13.4322 112.942 15.0733C112.961 15.9816 112.893 16.8948 113 17.8001C113.064 18.3338 113.258 18.9251 113.759 19.2012C114.597 19.6704 115.66 19.4656 116.43 18.9504V21.8315C115.426 22.2676 114.304 22.4003 113.218 22.3232C112.188 22.2471 111.121 21.8724 110.448 21.0529C109.672 20.127 109.472 18.8734 109.456 17.7006C109.447 15.1835 109.457 12.6664 109.452 10.1482C107.738 10.1473 106.024 10.1463 104.311 10.1492C104.309 14.0996 104.31 18.0499 104.31 22.0003C103.139 22.0003 101.967 22.0003 100.797 22.0003C100.797 18.0509 100.792 14.1025 100.798 10.1531C99.9838 10.1375 99.1682 10.157 98.3535 10.1404C98.3564 9.20286 98.3603 8.26429 98.3516 7.32573C99.1623 7.3072 99.974 7.315 100.787 7.32086C100.846 6.074 100.656 4.79104 101.029 3.57637C101.344 2.47976 102.044 1.49047 103.01 0.871913Z" fill="#8C8A97"/>
<path d="M27.7909 1.07676C28.4992 0.969443 29.2661 1.2114 29.7354 1.76556C30.2856 2.37241 30.3871 3.33829 29.9793 4.04757C29.5285 4.84759 28.5197 5.21931 27.6407 5.02711C26.7284 4.8632 25.9684 4.01537 26.0094 3.06998C25.9831 2.07484 26.8153 1.18799 27.7909 1.07676Z" fill="#8C8A97"/>
<path d="M0.866361 1.51196C2.56982 1.51196 4.2723 1.51196 5.97576 1.51196C7.56605 5.55011 9.16803 9.58436 10.7603 13.6225C11.1671 14.6323 11.5476 15.6538 11.974 16.6558C14.0199 11.6098 16.095 6.57648 18.1253 1.52367C19.7634 1.49732 21.4025 1.51781 23.0416 1.51391C23.0377 8.34237 23.0396 15.1708 23.0406 21.9993C21.8581 21.9964 20.6766 22.0091 19.4951 21.9925C19.5078 16.9533 19.4942 11.9142 19.501 6.87404C19.5029 6.6477 19.4951 6.42135 19.4795 6.19501C19.4103 6.30037 19.3488 6.40964 19.2951 6.52282C17.2648 11.681 15.1955 16.8245 13.1769 21.9876C12.3359 22.0179 11.4939 21.9896 10.652 22.0032C8.55728 16.845 6.48895 11.6751 4.40499 6.51306C4.35036 6.40574 4.29181 6.30135 4.22839 6.20086C4.18547 8.40872 4.22157 10.6185 4.20986 12.8264C4.21084 15.884 4.20791 18.9417 4.21084 21.9993C3.09569 22.0022 1.98054 21.9993 0.866361 22.0003C0.865385 15.1708 0.86441 8.3414 0.866361 1.51196Z" fill="#8C8A97"/>
<path d="M37.4587 7.30235C39.1543 6.81941 40.9827 6.83893 42.6773 7.31796C43.0266 7.41553 43.3652 7.55114 43.6793 7.73553C43.6598 8.85458 43.6793 9.97461 43.6686 11.0946C42.5359 10.2293 41.0988 9.68095 39.6587 9.86241C38.5153 9.96583 37.4245 10.559 36.7406 11.4829C35.8616 12.6283 35.6586 14.1494 35.8099 15.5504C35.923 16.647 36.3767 17.7426 37.2294 18.4695C38.1153 19.2568 39.3573 19.5358 40.5163 19.448C41.6617 19.3163 42.7427 18.8314 43.6686 18.1543C43.6784 19.2148 43.6637 20.2754 43.6764 21.3359C42.2403 22.1905 40.5183 22.411 38.8743 22.3301C37.1923 22.2413 35.5152 21.6042 34.2976 20.4217C32.9747 19.1466 32.2566 17.328 32.1717 15.5065C32.0859 13.6128 32.4712 11.6371 33.561 10.0556C34.4742 8.70629 35.9025 7.75114 37.4587 7.30235Z" fill="#8C8A97"/>
<path d="M75.8362 7.07889C77.4606 6.79303 79.1612 7.00279 80.6988 7.58525C80.7007 8.66235 80.6988 9.73847 80.6997 10.8146C79.6256 10.076 78.3133 9.67896 77.0099 9.72482C76.3533 9.75018 75.6313 10.0282 75.3318 10.6526C75.0937 11.2702 75.2586 12.08 75.8411 12.4498C76.8372 13.1161 78.0255 13.3991 79.0577 13.9961C79.8704 14.4527 80.6588 15.0498 81.0705 15.9103C81.8442 17.5221 81.5163 19.6519 80.1563 20.8539C78.8577 22.0676 76.9875 22.4032 75.2674 22.3388C74.0459 22.2598 72.8186 22.0188 71.6956 21.5193C71.7005 20.3866 71.6888 19.2548 71.7015 18.1231C72.6459 18.809 73.7356 19.2997 74.8888 19.4987C75.6918 19.6295 76.565 19.6353 77.3133 19.2763C78.0294 18.9202 78.1582 17.9026 77.7328 17.2801C77.3348 16.8001 76.7504 16.5357 76.1991 16.2762C75.164 15.8108 74.0762 15.4215 73.1669 14.724C72.5278 14.2254 72.0439 13.523 71.8546 12.7307C71.5736 11.5629 71.6615 10.2468 72.3405 9.22627C73.1161 8.03697 74.4635 7.32378 75.8362 7.07889Z" fill="#8C8A97"/>
<path d="M51.535 7.54132C52.5048 6.95886 53.737 6.91008 54.7956 7.26619C54.7907 8.43793 54.7956 9.60967 54.7927 10.7814C54.1 10.3326 53.2356 10.1404 52.418 10.2233C51.4209 10.3365 50.6306 11.1024 50.2208 11.9805C49.776 12.9102 49.692 13.962 49.7203 14.9786C49.7203 17.3191 49.7213 19.6597 49.7203 22.0002C48.5652 22.0002 47.411 22.0002 46.2568 22.0002C46.2539 17.1084 46.2607 12.2156 46.2539 7.32375C47.41 7.30912 48.5662 7.31497 49.7223 7.32082C49.7174 8.16085 49.7223 9.00087 49.7194 9.84187C50.095 8.9277 50.654 8.03987 51.535 7.54132Z" fill="#8C8A97"/>
<path d="M26.3281 7.32084C27.493 7.31597 28.6589 7.30426 29.8238 7.3267C29.8102 12.2176 29.8229 17.1094 29.818 22.0002C28.655 22.0002 27.4921 22.0002 26.3301 22.0002C26.3272 17.1074 26.3311 12.2146 26.3281 7.32084Z" fill="#8C8A97"/>
<path fill-rule="evenodd" clip-rule="evenodd" d="M66.2915 7.64278C64.7265 6.93057 62.9479 6.83496 61.262 7.0496C59.4913 7.27302 57.7673 8.10621 56.6434 9.51796C55.617 10.7785 55.1175 12.398 55.0219 14.0049C54.8804 15.8986 55.1965 17.9084 56.3088 19.4889C57.2561 20.8529 58.7517 21.7905 60.3674 22.1358C61.7177 22.4198 63.1304 22.4207 64.4807 22.1397C66.0602 21.8149 67.5354 20.9407 68.5139 19.6509C69.4701 18.4362 69.9501 16.9045 70.0584 15.3757C70.1686 13.8098 70.0106 12.1883 69.3598 10.7443C68.75 9.3882 67.6495 8.25548 66.2915 7.64278ZM65.2483 10.8351C64.4892 10.0673 63.3653 9.76874 62.3097 9.83801C61.4697 9.88484 60.6208 10.1688 59.9984 10.7502C59.1398 11.5278 58.7476 12.6869 58.6413 13.8137C58.5242 15.0528 58.6091 16.3592 59.175 17.4889C59.615 18.366 60.4238 19.0548 61.377 19.3056C62.3136 19.5485 63.3331 19.528 64.2404 19.1797C65.0161 18.8773 65.6307 18.2392 65.9664 17.4841C66.4737 16.364 66.5234 15.1045 66.461 13.8957C66.3742 12.7913 66.06 11.6332 65.2483 10.8351Z" fill="#8C8A97"/>
<path fill-rule="evenodd" clip-rule="evenodd" d="M94.479 7.75306C92.879 6.94524 91.0175 6.82718 89.2642 7.04475C87.8506 7.22622 86.4612 7.76282 85.3822 8.71016C84.0651 9.84482 83.2924 11.5132 83.0651 13.2195C82.8485 14.9259 82.9216 16.723 83.6173 18.3202C84.2846 19.887 85.6017 21.1593 87.1861 21.7827C88.7501 22.3983 90.4887 22.4676 92.1346 22.2012C93.8175 21.9232 95.4117 21.0383 96.4537 19.6763C97.5669 18.2694 98.0459 16.4489 98.043 14.6752C98.0674 13.4878 97.9191 12.2839 97.4966 11.1688C96.9561 9.71116 95.8742 8.45064 94.479 7.75306ZM93.0276 10.6712C92.2646 10.0009 91.2051 9.77162 90.2129 9.84089C89.2411 9.89552 88.2772 10.3141 87.6489 11.0712C86.9601 11.8819 86.6645 12.9522 86.5845 13.9951C86.5015 15.0722 86.5845 16.1874 87.0011 17.1942C87.3474 18.0391 88.005 18.7738 88.8538 19.1328C89.6402 19.4714 90.526 19.5319 91.367 19.406C92.1505 19.2909 92.9095 18.9162 93.4198 18.3016C93.9261 17.6899 94.1934 16.9191 94.3281 16.1464C94.4978 15.1093 94.4998 14.041 94.2988 13.0088C94.1203 12.1287 93.731 11.2546 93.0276 10.6712Z" fill="#8C8A97"/>
</svg>
