<svg width="205" height="135" viewBox="0 0 205 135" fill="none" xmlns="http://www.w3.org/2000/svg">
<g clip-path="url(#clip0_225_76)">
<rect width="205" height="135" fill="white"/>
<g clip-path="url(#clip1_225_76)" filter="url(#filter0_d_225_76)">
<rect width="205" height="135" rx="16" fill="url(#paint0_linear_225_76)"/>
<g opacity="0.1" clip-path="url(#clip2_225_76)">
<path d="M61.9917 119.906C69.2503 114.14 70.46 103.581 64.6936 96.3228C58.9273 89.0642 48.3685 87.8545 41.11 93.6208C33.8514 99.3871 32.6417 109.946 38.408 117.204C44.1744 124.463 54.7331 125.673 61.9917 119.906Z" fill="white"/>
<path d="M75.47 136.872C57.0125 151.535 39.1588 162.174 23.8033 167.625C13.8537 171.174 4.37519 172.896 -3.58732 172.602C-12.025 172.302 -18.4184 169.737 -22.0165 165.208C-28.9216 156.516 -26.1513 140.436 -14.5641 122.178C-5.09255 107.223 9.95993 91.1233 27.8153 76.9387C45.3565 63.0037 64.1458 52.0913 80.7351 46.2576C90.4336 42.8233 99.5517 41.1312 107.102 41.2823C115.337 41.4879 121.553 43.9374 125.068 48.362C132.243 57.3944 128.846 74.9965 116.185 94.3215C107.24 108.004 92.7756 123.124 75.47 136.872ZM32.8331 83.2013C15.8941 96.658 1.09337 112.43 -7.76912 126.431C-18.4063 143.251 -19.4299 155.509 -15.7069 160.195C-11.8384 165.065 1.35057 167.1 21.1241 160.06C35.6379 154.893 52.7277 144.69 70.4784 130.589C87.1294 117.361 100.991 102.933 109.479 89.9122C121.369 71.7124 122.658 58.1762 118.81 53.3328C116.835 50.8456 112.62 49.4108 106.923 49.2817C100.349 49.1235 92.1979 50.6884 83.4196 53.7759C67.6667 59.3723 49.6936 69.8071 32.8331 83.2013Z" fill="white"/>
<path d="M73.7689 195.958C71.0985 198.079 68.2846 199.375 65.3798 199.804C54.4133 201.427 41.8535 190.993 31.8144 171.851C23.5702 156.152 17.1773 135.096 13.8131 112.531C10.5205 90.3782 10.438 68.665 13.6564 51.3756C15.529 41.2618 18.6034 32.4993 22.5314 26.048C26.8113 19.0181 32.0475 14.8584 37.617 14.021C49.0224 12.3054 62.5959 24.0699 72.9904 44.6799C80.3818 59.3058 86.2454 79.373 89.5233 101.238C92.9947 124.53 93.2788 145.314 90.3468 161.351C88.4418 171.747 85.1889 180.822 80.9674 187.549C78.7778 191.082 76.3347 193.92 73.7689 195.958ZM17.7576 111.959L21.7284 111.367C24.9191 132.746 31.1618 153.452 38.9028 168.142C48.1638 185.766 58.2863 192.756 64.1692 191.883C65.6216 191.669 67.1803 190.943 68.7773 189.675C73.9873 185.536 79.5613 175.727 82.4665 159.925C85.2493 144.775 84.936 124.868 81.6026 102.449C78.4682 81.4091 72.8627 62.2045 65.8604 48.3371C56.0414 28.9353 44.9715 21.0749 38.8222 21.9887C35.6978 22.4637 32.3405 25.3869 29.3787 30.2594C25.9495 35.8874 23.2439 43.7163 21.5521 52.8751C18.5038 69.3035 18.5738 90.0872 21.7492 111.393L17.7576 111.959Z" fill="white"/>
<path d="M133.472 148.657C126.351 154.315 113.907 157.196 98.0347 156.568C80.3137 155.87 58.8945 150.894 37.6487 142.534C16.7888 134.337 -2.03609 123.542 -15.4332 112.107C-23.259 105.427 -29.3082 98.4041 -32.9514 91.7754C-36.9058 84.5399 -37.912 77.9515 -35.8313 72.6688C-31.6276 61.9415 -14.6517 56.0569 8.40412 57.3419C24.7458 58.2384 45.0738 63.1852 65.6364 71.2763C87.5653 79.9048 105.729 90.0296 118.132 100.589C126.177 107.436 132.428 114.768 136.169 121.789C140.144 129.265 141.102 136.062 138.985 141.459C137.936 144.171 136.064 146.598 133.472 148.657ZM40.5985 135.066C60.7283 142.989 81.7979 147.901 98.3598 148.538C118.237 149.316 129.357 144.069 131.543 138.489C133.824 132.706 128.989 120.276 112.983 106.686C101.226 96.7245 83.8438 87.0462 62.7335 78.7495C42.9219 70.9586 23.4758 66.2081 7.98509 65.3614C-13.7238 64.1593 -26.0565 69.8144 -28.3374 75.5978C-29.5067 78.5338 -28.6287 82.918 -25.8938 87.9195C-22.7228 93.685 -17.303 99.9699 -10.2112 105.994C2.5142 116.852 20.5365 127.175 40.5985 135.066Z" fill="white"/>
</g>
<path d="M23.54 40.393C24.268 40.393 24.9093 40.3063 25.464 40.133C26.0273 39.951 26.4953 39.6997 26.868 39.379C27.2493 39.0497 27.5353 38.6597 27.726 38.209C27.9167 37.7583 28.012 37.26 28.012 36.714C28.012 35.6047 27.648 34.7683 26.92 34.205C26.192 33.6417 25.1 33.36 23.644 33.36H20.888V40.393H23.54ZM32.146 50H29.91C29.4507 50 29.1127 49.8223 28.896 49.467L24.06 42.811C23.9127 42.603 23.7523 42.4557 23.579 42.369C23.4143 42.2737 23.1543 42.226 22.799 42.226H20.888V50H18.379V31.371H23.644C24.8227 31.371 25.841 31.4923 26.699 31.735C27.557 31.969 28.2633 32.3113 28.818 32.762C29.3813 33.2127 29.7973 33.7587 30.066 34.4C30.3347 35.0327 30.469 35.7433 30.469 36.532C30.469 37.1907 30.365 37.806 30.157 38.378C29.949 38.95 29.6457 39.4657 29.247 39.925C28.857 40.3757 28.376 40.7613 27.804 41.082C27.2407 41.4027 26.5993 41.6453 25.88 41.81C26.2007 41.992 26.478 42.2563 26.712 42.603L32.146 50ZM42.1099 41.979C42.1099 41.4417 42.0319 40.952 41.8759 40.51C41.7286 40.0593 41.5076 39.6737 41.2129 39.353C40.9269 39.0237 40.5759 38.7723 40.1599 38.599C39.7439 38.417 39.2716 38.326 38.7429 38.326C37.6336 38.326 36.7539 38.651 36.1039 39.301C35.4626 39.9423 35.0639 40.835 34.9079 41.979H42.1099ZM43.9819 48.154C43.6959 48.5007 43.3536 48.804 42.9549 49.064C42.5562 49.3153 42.1272 49.5233 41.6679 49.688C41.2172 49.8527 40.7492 49.974 40.2639 50.052C39.7786 50.1387 39.2976 50.182 38.8209 50.182C37.9109 50.182 37.0702 50.0303 36.2989 49.727C35.5362 49.415 34.8732 48.9643 34.3099 48.375C33.7552 47.777 33.3219 47.0403 33.0099 46.165C32.6979 45.2897 32.5419 44.2843 32.5419 43.149C32.5419 42.2303 32.6806 41.3723 32.9579 40.575C33.2439 39.7777 33.6512 39.0887 34.1799 38.508C34.7086 37.9187 35.3542 37.4593 36.1169 37.13C36.8796 36.792 37.7376 36.623 38.6909 36.623C39.4796 36.623 40.2076 36.7573 40.8749 37.026C41.5509 37.286 42.1316 37.6673 42.6169 38.17C43.1109 38.664 43.4966 39.2793 43.7739 40.016C44.0512 40.744 44.1899 41.576 44.1899 42.512C44.1899 42.876 44.1509 43.1187 44.0729 43.24C43.9949 43.3613 43.8476 43.422 43.6309 43.422H34.8299C34.8559 44.254 34.9686 44.9777 35.1679 45.593C35.3759 46.2083 35.6619 46.724 36.0259 47.14C36.3899 47.5473 36.8232 47.855 37.3259 48.063C37.8286 48.2623 38.3919 48.362 39.0159 48.362C39.5966 48.362 40.0949 48.297 40.5109 48.167C40.9356 48.0283 41.2996 47.881 41.6029 47.725C41.9062 47.569 42.1576 47.426 42.3569 47.296C42.5649 47.1573 42.7426 47.088 42.8899 47.088C43.0806 47.088 43.2279 47.1617 43.3319 47.309L43.9819 48.154ZM54.1692 44.072C53.1032 44.1067 52.1932 44.1933 51.4392 44.332C50.6939 44.462 50.0829 44.6353 49.6062 44.852C49.1382 45.0687 48.7959 45.3243 48.5792 45.619C48.3712 45.9137 48.2672 46.243 48.2672 46.607C48.2672 46.9537 48.3236 47.2527 48.4362 47.504C48.5489 47.7553 48.7006 47.9633 48.8912 48.128C49.0906 48.284 49.3202 48.401 49.5802 48.479C49.8489 48.5483 50.1349 48.583 50.4382 48.583C50.8456 48.583 51.2182 48.544 51.5562 48.466C51.8942 48.3793 52.2106 48.258 52.5052 48.102C52.8086 47.946 53.0946 47.7597 53.3632 47.543C53.6406 47.3263 53.9092 47.0793 54.1692 46.802V44.072ZM46.6942 38.69C47.4222 37.988 48.2066 37.4637 49.0472 37.117C49.8879 36.7703 50.8196 36.597 51.8422 36.597C52.5789 36.597 53.2332 36.7183 53.8052 36.961C54.3772 37.2037 54.8582 37.5417 55.2482 37.975C55.6382 38.4083 55.9329 38.9327 56.1322 39.548C56.3316 40.1633 56.4312 40.8393 56.4312 41.576V50H55.4042C55.1789 50 55.0056 49.9653 54.8842 49.896C54.7629 49.818 54.6676 49.6707 54.5982 49.454L54.3382 48.206C53.9916 48.5267 53.6536 48.8127 53.3242 49.064C52.9949 49.3067 52.6482 49.5147 52.2842 49.688C51.9202 49.8527 51.5302 49.9783 51.1142 50.065C50.7069 50.1603 50.2519 50.208 49.7492 50.208C49.2379 50.208 48.7569 50.1387 48.3062 50C47.8556 49.8527 47.4612 49.636 47.1232 49.35C46.7939 49.064 46.5296 48.7043 46.3302 48.271C46.1396 47.829 46.0442 47.309 46.0442 46.711C46.0442 46.191 46.1872 45.6927 46.4732 45.216C46.7592 44.7307 47.2229 44.3017 47.8642 43.929C48.5056 43.5563 49.3419 43.253 50.3732 43.019C51.4046 42.7763 52.6699 42.6377 54.1692 42.603V41.576C54.1692 40.5533 53.9482 39.782 53.5062 39.262C53.0642 38.7333 52.4186 38.469 51.5692 38.469C50.9972 38.469 50.5162 38.5427 50.1262 38.69C49.7449 38.8287 49.4112 38.989 49.1252 39.171C48.8479 39.3443 48.6052 39.5047 48.3972 39.652C48.1979 39.7907 47.9986 39.86 47.7992 39.86C47.6432 39.86 47.5089 39.821 47.3962 39.743C47.2836 39.6563 47.1882 39.5523 47.1102 39.431L46.6942 38.69ZM69.121 39.171C69.0517 39.2663 68.9824 39.34 68.913 39.392C68.8437 39.444 68.7484 39.47 68.627 39.47C68.497 39.47 68.354 39.418 68.198 39.314C68.042 39.2013 67.847 39.08 67.613 38.95C67.3877 38.82 67.106 38.703 66.768 38.599C66.4387 38.4863 66.0314 38.43 65.546 38.43C64.896 38.43 64.324 38.547 63.83 38.781C63.336 39.0063 62.92 39.3357 62.582 39.769C62.2527 40.2023 62.0014 40.7267 61.828 41.342C61.6634 41.9573 61.581 42.6463 61.581 43.409C61.581 44.2063 61.672 44.917 61.854 45.541C62.036 46.1563 62.2917 46.6763 62.621 47.101C62.959 47.517 63.362 47.8377 63.83 48.063C64.3067 48.2797 64.8397 48.388 65.429 48.388C65.9924 48.388 66.456 48.323 66.82 48.193C67.184 48.0543 67.483 47.9027 67.717 47.738C67.9597 47.5733 68.159 47.426 68.315 47.296C68.4797 47.1573 68.64 47.088 68.796 47.088C68.9867 47.088 69.134 47.1617 69.238 47.309L69.888 48.154C69.602 48.5093 69.277 48.8127 68.913 49.064C68.549 49.3153 68.1547 49.5277 67.73 49.701C67.314 49.8657 66.8764 49.987 66.417 50.065C65.9577 50.143 65.4897 50.182 65.013 50.182C64.1897 50.182 63.4227 50.0303 62.712 49.727C62.01 49.4237 61.399 48.986 60.879 48.414C60.359 47.8333 59.9517 47.1227 59.657 46.282C59.3624 45.4413 59.215 44.4837 59.215 43.409C59.215 42.4297 59.3494 41.524 59.618 40.692C59.8954 39.86 60.294 39.145 60.814 38.547C61.3427 37.9403 61.9884 37.468 62.751 37.13C63.5224 36.792 64.4064 36.623 65.403 36.623C66.3304 36.623 67.145 36.7747 67.847 37.078C68.5577 37.3727 69.186 37.793 69.732 38.339L69.121 39.171ZM76.4151 50.208C75.3751 50.208 74.5734 49.9177 74.0101 49.337C73.4554 48.7563 73.1781 47.92 73.1781 46.828V38.768H71.5921C71.4534 38.768 71.3364 38.729 71.2411 38.651C71.1457 38.5643 71.0981 38.4343 71.0981 38.261V37.338L73.2561 37.065L73.7891 32.996C73.8151 32.866 73.8714 32.762 73.9581 32.684C74.0534 32.5973 74.1747 32.554 74.3221 32.554H75.4921V37.091H79.3011V38.768H75.4921V46.672C75.4921 47.2267 75.6264 47.6383 75.8951 47.907C76.1637 48.1757 76.5104 48.31 76.9351 48.31C77.1777 48.31 77.3857 48.2797 77.5591 48.219C77.7411 48.1497 77.8971 48.076 78.0271 47.998C78.1571 47.92 78.2654 47.8507 78.3521 47.79C78.4474 47.7207 78.5297 47.686 78.5991 47.686C78.7204 47.686 78.8287 47.7597 78.9241 47.907L79.6001 49.012C79.2014 49.3847 78.7204 49.6793 78.1571 49.896C77.5937 50.104 77.0131 50.208 76.4151 50.208ZM88.1348 41.225H94.5568V43.188H88.1348V41.225ZM116.999 33.49H110.967V50H108.458V33.49H102.413V31.371H116.999V33.49ZM121.316 38.586C121.88 37.988 122.504 37.5113 123.188 37.156C123.873 36.8007 124.662 36.623 125.554 36.623C126.274 36.623 126.906 36.7443 127.452 36.987C128.007 37.221 128.466 37.559 128.83 38.001C129.203 38.4343 129.485 38.9587 129.675 39.574C129.866 40.1893 129.961 40.8697 129.961 41.615V50H127.634V41.615C127.634 40.6183 127.405 39.847 126.945 39.301C126.495 38.7463 125.806 38.469 124.878 38.469C124.194 38.469 123.552 38.6337 122.954 38.963C122.365 39.2923 121.819 39.7387 121.316 40.302V50H118.989V30.851H121.316V38.586ZM142.301 41.979C142.301 41.4417 142.223 40.952 142.067 40.51C141.92 40.0593 141.699 39.6737 141.404 39.353C141.118 39.0237 140.767 38.7723 140.351 38.599C139.935 38.417 139.463 38.326 138.934 38.326C137.825 38.326 136.945 38.651 136.295 39.301C135.654 39.9423 135.255 40.835 135.099 41.979H142.301ZM144.173 48.154C143.887 48.5007 143.545 48.804 143.146 49.064C142.748 49.3153 142.319 49.5233 141.859 49.688C141.409 49.8527 140.941 49.974 140.455 50.052C139.97 50.1387 139.489 50.182 139.012 50.182C138.102 50.182 137.262 50.0303 136.49 49.727C135.728 49.415 135.065 48.9643 134.501 48.375C133.947 47.777 133.513 47.0403 133.201 46.165C132.889 45.2897 132.733 44.2843 132.733 43.149C132.733 42.2303 132.872 41.3723 133.149 40.575C133.435 39.7777 133.843 39.0887 134.371 38.508C134.9 37.9187 135.546 37.4593 136.308 37.13C137.071 36.792 137.929 36.623 138.882 36.623C139.671 36.623 140.399 36.7573 141.066 37.026C141.742 37.286 142.323 37.6673 142.808 38.17C143.302 38.664 143.688 39.2793 143.965 40.016C144.243 40.744 144.381 41.576 144.381 42.512C144.381 42.876 144.342 43.1187 144.264 43.24C144.186 43.3613 144.039 43.422 143.822 43.422H135.021C135.047 44.254 135.16 44.9777 135.359 45.593C135.567 46.2083 135.853 46.724 136.217 47.14C136.581 47.5473 137.015 47.855 137.517 48.063C138.02 48.2623 138.583 48.362 139.207 48.362C139.788 48.362 140.286 48.297 140.702 48.167C141.127 48.0283 141.491 47.881 141.794 47.725C142.098 47.569 142.349 47.426 142.548 47.296C142.756 47.1573 142.934 47.088 143.081 47.088C143.272 47.088 143.419 47.1617 143.523 47.309L144.173 48.154ZM31.457 78.152C31.5957 78.152 31.717 78.2083 31.821 78.321L32.822 79.4C32.0593 80.284 31.132 80.973 30.04 81.467C28.9567 81.961 27.6437 82.208 26.101 82.208C24.7663 82.208 23.553 81.9783 22.461 81.519C21.369 81.051 20.4373 80.401 19.666 79.569C18.8947 78.7283 18.2967 77.723 17.872 76.553C17.4473 75.383 17.235 74.096 17.235 72.692C17.235 71.288 17.456 70.001 17.898 68.831C18.34 67.661 18.9597 66.6557 19.757 65.815C20.563 64.9743 21.525 64.3243 22.643 63.865C23.761 63.397 24.996 63.163 26.348 63.163C27.674 63.163 28.844 63.3753 29.858 63.8C30.872 64.2247 31.7647 64.801 32.536 65.529L31.704 66.686C31.652 66.7727 31.5827 66.8463 31.496 66.907C31.418 66.959 31.3097 66.985 31.171 66.985C31.015 66.985 30.8243 66.9027 30.599 66.738C30.3737 66.5647 30.079 66.374 29.715 66.166C29.351 65.958 28.896 65.7717 28.35 65.607C27.804 65.4337 27.1323 65.347 26.335 65.347C25.373 65.347 24.4933 65.516 23.696 65.854C22.8987 66.1833 22.2097 66.6643 21.629 67.297C21.057 67.9297 20.6107 68.701 20.29 69.611C19.9693 70.521 19.809 71.548 19.809 72.692C19.809 73.8533 19.9737 74.889 20.303 75.799C20.641 76.709 21.096 77.4803 21.668 78.113C22.2487 78.737 22.929 79.2137 23.709 79.543C24.4977 79.8723 25.347 80.037 26.257 80.037C26.8117 80.037 27.31 80.0067 27.752 79.946C28.2027 79.8767 28.6143 79.7727 28.987 79.634C29.3683 79.4953 29.7193 79.322 30.04 79.114C30.3693 78.8973 30.6943 78.6417 31.015 78.347C31.1623 78.217 31.3097 78.152 31.457 78.152ZM40.4973 68.623C41.4593 68.623 42.3259 68.7833 43.0973 69.104C43.8686 69.4247 44.5273 69.8797 45.0733 70.469C45.6193 71.0583 46.0353 71.7733 46.3213 72.614C46.6159 73.446 46.7633 74.3777 46.7633 75.409C46.7633 76.449 46.6159 77.385 46.3213 78.217C46.0353 79.049 45.6193 79.7597 45.0733 80.349C44.5273 80.9383 43.8686 81.3933 43.0973 81.714C42.3259 82.026 41.4593 82.182 40.4973 82.182C39.5266 82.182 38.6513 82.026 37.8713 81.714C37.0999 81.3933 36.4413 80.9383 35.8953 80.349C35.3493 79.7597 34.9289 79.049 34.6343 78.217C34.3483 77.385 34.2053 76.449 34.2053 75.409C34.2053 74.3777 34.3483 73.446 34.6343 72.614C34.9289 71.7733 35.3493 71.0583 35.8953 70.469C36.4413 69.8797 37.0999 69.4247 37.8713 69.104C38.6513 68.7833 39.5266 68.623 40.4973 68.623ZM40.4973 80.375C41.7973 80.375 42.7679 79.9417 43.4093 79.075C44.0506 78.1997 44.3713 76.982 44.3713 75.422C44.3713 73.8533 44.0506 72.6313 43.4093 71.756C42.7679 70.8807 41.7973 70.443 40.4973 70.443C39.8386 70.443 39.2623 70.5557 38.7683 70.781C38.2829 71.0063 37.8756 71.3313 37.5463 71.756C37.2256 72.1807 36.9829 72.705 36.8183 73.329C36.6623 73.9443 36.5843 74.642 36.5843 75.422C36.5843 76.982 36.9049 78.1997 37.5463 79.075C38.1963 79.9417 39.1799 80.375 40.4973 80.375ZM49.6982 82V68.831H51.0892C51.4186 68.831 51.6222 68.9913 51.7002 69.312L51.8692 70.664C52.3546 70.066 52.9006 69.5763 53.5072 69.195C54.1139 68.8137 54.8159 68.623 55.6132 68.623C56.4972 68.623 57.2122 68.87 57.7582 69.364C58.3129 69.858 58.7116 70.5253 58.9542 71.366C59.1449 70.8893 59.3876 70.4777 59.6822 70.131C59.9856 69.7843 60.3236 69.4983 60.6962 69.273C61.0689 69.0477 61.4632 68.883 61.8792 68.779C62.3039 68.675 62.7329 68.623 63.1662 68.623C63.8596 68.623 64.4749 68.7357 65.0122 68.961C65.5582 69.1777 66.0176 69.4983 66.3902 69.923C66.7716 70.3477 67.0619 70.872 67.2612 71.496C67.4606 72.1113 67.5602 72.8177 67.5602 73.615V82H65.2332V73.615C65.2332 72.5837 65.0079 71.8037 64.5572 71.275C64.1066 70.7377 63.4566 70.469 62.6072 70.469C62.2259 70.469 61.8619 70.5383 61.5152 70.677C61.1772 70.807 60.8782 71.002 60.6182 71.262C60.3582 71.522 60.1502 71.8513 59.9942 72.25C59.8469 72.64 59.7732 73.095 59.7732 73.615V82H57.4462V73.615C57.4462 72.5577 57.2339 71.769 56.8092 71.249C56.3846 70.729 55.7649 70.469 54.9502 70.469C54.3782 70.469 53.8496 70.625 53.3642 70.937C52.8789 71.2403 52.4326 71.6563 52.0252 72.185V82H49.6982ZM73.4041 78.828C73.8288 79.4 74.2925 79.803 74.7951 80.037C75.2978 80.271 75.8611 80.388 76.4851 80.388C77.7158 80.388 78.6605 79.9503 79.3191 79.075C79.9778 78.1997 80.3071 76.9517 80.3071 75.331C80.3071 74.473 80.2291 73.7363 80.0731 73.121C79.9258 72.5057 79.7091 72.003 79.4231 71.613C79.1371 71.2143 78.7861 70.924 78.3701 70.742C77.9541 70.56 77.4818 70.469 76.9531 70.469C76.1991 70.469 75.5361 70.6423 74.9641 70.989C74.4008 71.3357 73.8808 71.8253 73.4041 72.458V78.828ZM73.2871 70.872C73.8418 70.1873 74.4831 69.637 75.2111 69.221C75.9391 68.805 76.7711 68.597 77.7071 68.597C78.4698 68.597 79.1588 68.7443 79.7741 69.039C80.3895 69.325 80.9138 69.754 81.3471 70.326C81.7805 70.8893 82.1141 71.5913 82.3481 72.432C82.5821 73.2727 82.6991 74.239 82.6991 75.331C82.6991 76.3017 82.5691 77.2073 82.3091 78.048C82.0491 78.88 81.6721 79.6037 81.1781 80.219C80.6928 80.8257 80.0948 81.3067 79.3841 81.662C78.6821 82.0087 77.8891 82.182 77.0051 82.182C76.1991 82.182 75.5058 82.0477 74.9251 81.779C74.3531 81.5017 73.8461 81.1203 73.4041 80.635V86.459H71.0771V68.831H72.4681C72.7975 68.831 73.0011 68.9913 73.0791 69.312L73.2871 70.872ZM88.0434 62.851V82H85.7294V62.851H88.0434ZM100.61 73.979C100.61 73.4417 100.532 72.952 100.376 72.51C100.229 72.0593 100.008 71.6737 99.7129 71.353C99.4269 71.0237 99.0759 70.7723 98.6599 70.599C98.2439 70.417 97.7716 70.326 97.2429 70.326C96.1336 70.326 95.2539 70.651 94.6039 71.301C93.9626 71.9423 93.5639 72.835 93.4079 73.979H100.61ZM102.482 80.154C102.196 80.5007 101.854 80.804 101.455 81.064C101.056 81.3153 100.627 81.5233 100.168 81.688C99.7172 81.8527 99.2492 81.974 98.7639 82.052C98.2786 82.1387 97.7976 82.182 97.3209 82.182C96.4109 82.182 95.5702 82.0303 94.7989 81.727C94.0362 81.415 93.3732 80.9643 92.8099 80.375C92.2552 79.777 91.8219 79.0403 91.5099 78.165C91.1979 77.2897 91.0419 76.2843 91.0419 75.149C91.0419 74.2303 91.1806 73.3723 91.4579 72.575C91.7439 71.7777 92.1512 71.0887 92.6799 70.508C93.2086 69.9187 93.8542 69.4593 94.6169 69.13C95.3796 68.792 96.2376 68.623 97.1909 68.623C97.9796 68.623 98.7076 68.7573 99.3749 69.026C100.051 69.286 100.632 69.6673 101.117 70.17C101.611 70.664 101.997 71.2793 102.274 72.016C102.551 72.744 102.69 73.576 102.69 74.512C102.69 74.876 102.651 75.1187 102.573 75.24C102.495 75.3613 102.348 75.422 102.131 75.422H93.3299C93.3559 76.254 93.4686 76.9777 93.6679 77.593C93.8759 78.2083 94.1619 78.724 94.5259 79.14C94.8899 79.5473 95.3232 79.855 95.8259 80.063C96.3286 80.2623 96.8919 80.362 97.5159 80.362C98.0966 80.362 98.5949 80.297 99.0109 80.167C99.4356 80.0283 99.7996 79.881 100.103 79.725C100.406 79.569 100.658 79.426 100.857 79.296C101.065 79.1573 101.243 79.088 101.39 79.088C101.581 79.088 101.728 79.1617 101.832 79.309L102.482 80.154ZM109.474 82.208C108.434 82.208 107.632 81.9177 107.069 81.337C106.514 80.7563 106.237 79.92 106.237 78.828V70.768H104.651C104.512 70.768 104.395 70.729 104.3 70.651C104.204 70.5643 104.157 70.4343 104.157 70.261V69.338L106.315 69.065L106.848 64.996C106.874 64.866 106.93 64.762 107.017 64.684C107.112 64.5973 107.233 64.554 107.381 64.554H108.551V69.091H112.36V70.768H108.551V78.672C108.551 79.2267 108.685 79.6383 108.954 79.907C109.222 80.1757 109.569 80.31 109.994 80.31C110.236 80.31 110.444 80.2797 110.618 80.219C110.8 80.1497 110.956 80.076 111.086 79.998C111.216 79.92 111.324 79.8507 111.411 79.79C111.506 79.7207 111.588 79.686 111.658 79.686C111.779 79.686 111.887 79.7597 111.983 79.907L112.659 81.012C112.26 81.3847 111.779 81.6793 111.216 81.896C110.652 82.104 110.072 82.208 109.474 82.208ZM123.487 73.979C123.487 73.4417 123.409 72.952 123.253 72.51C123.106 72.0593 122.885 71.6737 122.59 71.353C122.304 71.0237 121.953 70.7723 121.537 70.599C121.121 70.417 120.649 70.326 120.12 70.326C119.011 70.326 118.131 70.651 117.481 71.301C116.84 71.9423 116.441 72.835 116.285 73.979H123.487ZM125.359 80.154C125.073 80.5007 124.731 80.804 124.332 81.064C123.933 81.3153 123.504 81.5233 123.045 81.688C122.594 81.8527 122.126 81.974 121.641 82.052C121.156 82.1387 120.675 82.182 120.198 82.182C119.288 82.182 118.447 82.0303 117.676 81.727C116.913 81.415 116.25 80.9643 115.687 80.375C115.132 79.777 114.699 79.0403 114.387 78.165C114.075 77.2897 113.919 76.2843 113.919 75.149C113.919 74.2303 114.058 73.3723 114.335 72.575C114.621 71.7777 115.028 71.0887 115.557 70.508C116.086 69.9187 116.731 69.4593 117.494 69.13C118.257 68.792 119.115 68.623 120.068 68.623C120.857 68.623 121.585 68.7573 122.252 69.026C122.928 69.286 123.509 69.6673 123.994 70.17C124.488 70.664 124.874 71.2793 125.151 72.016C125.428 72.744 125.567 73.576 125.567 74.512C125.567 74.876 125.528 75.1187 125.45 75.24C125.372 75.3613 125.225 75.422 125.008 75.422H116.207C116.233 76.254 116.346 76.9777 116.545 77.593C116.753 78.2083 117.039 78.724 117.403 79.14C117.767 79.5473 118.2 79.855 118.703 80.063C119.206 80.2623 119.769 80.362 120.393 80.362C120.974 80.362 121.472 80.297 121.888 80.167C122.313 80.0283 122.677 79.881 122.98 79.725C123.283 79.569 123.535 79.426 123.734 79.296C123.942 79.1573 124.12 79.088 124.267 79.088C124.458 79.088 124.605 79.1617 124.709 79.309L125.359 80.154ZM33.511 105.043V112.193C32.575 112.869 31.574 113.376 30.508 113.714C29.4507 114.043 28.2893 114.208 27.024 114.208C25.5247 114.208 24.1727 113.978 22.968 113.519C21.7633 113.051 20.732 112.401 19.874 111.569C19.0247 110.728 18.3703 109.723 17.911 108.553C17.4517 107.383 17.222 106.096 17.222 104.692C17.222 103.271 17.443 101.975 17.885 100.805C18.3357 99.635 18.9727 98.634 19.796 97.802C20.6193 96.9613 21.6203 96.3113 22.799 95.852C23.9777 95.3927 25.295 95.163 26.751 95.163C27.4877 95.163 28.1723 95.2193 28.805 95.332C29.4377 95.436 30.0227 95.592 30.56 95.8C31.0973 95.9993 31.5957 96.2463 32.055 96.541C32.5143 96.827 32.9433 97.152 33.342 97.516L32.627 98.66C32.5143 98.8333 32.367 98.946 32.185 98.998C32.0117 99.0413 31.8167 98.998 31.6 98.868C31.392 98.7467 31.1537 98.5993 30.885 98.426C30.6163 98.2527 30.287 98.088 29.897 97.932C29.5157 97.7673 29.0607 97.6287 28.532 97.516C28.012 97.4033 27.3923 97.347 26.673 97.347C25.6243 97.347 24.6753 97.5203 23.826 97.867C22.9767 98.205 22.253 98.6947 21.655 99.336C21.057 99.9687 20.5977 100.74 20.277 101.65C19.9563 102.551 19.796 103.565 19.796 104.692C19.796 105.862 19.9607 106.911 20.29 107.838C20.628 108.757 21.1047 109.541 21.72 110.191C22.344 110.832 23.098 111.322 23.982 111.66C24.866 111.998 25.8583 112.167 26.959 112.167C27.8257 112.167 28.5927 112.072 29.26 111.881C29.936 111.682 30.5947 111.409 31.236 111.062V106.967H28.337C28.1723 106.967 28.038 106.919 27.934 106.824C27.8387 106.729 27.791 106.612 27.791 106.473V105.043H33.511ZM47.4257 100.831V114H46.0477C45.7183 114 45.5103 113.84 45.4237 113.519L45.2417 112.102C44.6697 112.735 44.0283 113.246 43.3177 113.636C42.607 114.017 41.7923 114.208 40.8737 114.208C40.1543 114.208 39.5173 114.091 38.9627 113.857C38.4167 113.614 37.9573 113.276 37.5847 112.843C37.212 112.41 36.9303 111.885 36.7397 111.27C36.5577 110.655 36.4667 109.974 36.4667 109.229V100.831H38.7807V109.229C38.7807 110.226 39.006 110.997 39.4567 111.543C39.916 112.089 40.6137 112.362 41.5497 112.362C42.2343 112.362 42.8713 112.202 43.4607 111.881C44.0587 111.552 44.609 111.101 45.1117 110.529V100.831H47.4257ZM53.5387 100.831V114H51.2247V100.831H53.5387ZM54.0327 96.697C54.0327 96.9223 53.9851 97.1347 53.8897 97.334C53.8031 97.5247 53.6817 97.698 53.5257 97.854C53.3784 98.0013 53.2007 98.1183 52.9927 98.205C52.7934 98.2917 52.5811 98.335 52.3557 98.335C52.1304 98.335 51.9181 98.2917 51.7187 98.205C51.5281 98.1183 51.3591 98.0013 51.2117 97.854C51.0644 97.698 50.9474 97.5247 50.8607 97.334C50.7741 97.1347 50.7307 96.9223 50.7307 96.697C50.7307 96.4717 50.7741 96.2593 50.8607 96.06C50.9474 95.852 51.0644 95.6743 51.2117 95.527C51.3591 95.371 51.5281 95.2497 51.7187 95.163C51.9181 95.0763 52.1304 95.033 52.3557 95.033C52.5811 95.033 52.7934 95.0763 52.9927 95.163C53.2007 95.2497 53.3784 95.371 53.5257 95.527C53.6817 95.6743 53.8031 95.852 53.8897 96.06C53.9851 96.2593 54.0327 96.4717 54.0327 96.697ZM65.9208 103.964C65.4875 103.383 65.0195 102.98 64.5168 102.755C64.0141 102.521 63.4508 102.404 62.8268 102.404C61.6048 102.404 60.6645 102.842 60.0058 103.717C59.3471 104.592 59.0178 105.84 59.0178 107.461C59.0178 108.319 59.0915 109.056 59.2388 109.671C59.3861 110.278 59.6028 110.78 59.8888 111.179C60.1748 111.569 60.5258 111.855 60.9418 112.037C61.3578 112.219 61.8301 112.31 62.3588 112.31C63.1215 112.31 63.7845 112.137 64.3478 111.79C64.9198 111.443 65.4441 110.954 65.9208 110.321V103.964ZM68.2348 94.851V114H66.8568C66.5275 114 66.3195 113.84 66.2328 113.519L66.0248 111.92C65.4615 112.596 64.8201 113.142 64.1008 113.558C63.3815 113.974 62.5495 114.182 61.6048 114.182C60.8508 114.182 60.1661 114.039 59.5508 113.753C58.9355 113.458 58.4111 113.029 57.9778 112.466C57.5445 111.903 57.2108 111.201 56.9768 110.36C56.7428 109.519 56.6258 108.553 56.6258 107.461C56.6258 106.49 56.7558 105.589 57.0158 104.757C57.2758 103.916 57.6485 103.188 58.1338 102.573C58.6191 101.958 59.2128 101.477 59.9148 101.13C60.6255 100.775 61.4228 100.597 62.3068 100.597C63.1128 100.597 63.8018 100.736 64.3738 101.013C64.9545 101.282 65.4701 101.659 65.9208 102.144V94.851H68.2348ZM80.7036 105.979C80.7036 105.442 80.6256 104.952 80.4696 104.51C80.3223 104.059 80.1013 103.674 79.8066 103.353C79.5206 103.024 79.1696 102.772 78.7536 102.599C78.3376 102.417 77.8653 102.326 77.3366 102.326C76.2273 102.326 75.3476 102.651 74.6976 103.301C74.0563 103.942 73.6576 104.835 73.5016 105.979H80.7036ZM82.5756 112.154C82.2896 112.501 81.9473 112.804 81.5486 113.064C81.15 113.315 80.721 113.523 80.2616 113.688C79.811 113.853 79.343 113.974 78.8576 114.052C78.3723 114.139 77.8913 114.182 77.4146 114.182C76.5046 114.182 75.664 114.03 74.8926 113.727C74.13 113.415 73.467 112.964 72.9036 112.375C72.349 111.777 71.9156 111.04 71.6036 110.165C71.2916 109.29 71.1356 108.284 71.1356 107.149C71.1356 106.23 71.2743 105.372 71.5516 104.575C71.8376 103.778 72.245 103.089 72.7736 102.508C73.3023 101.919 73.948 101.459 74.7106 101.13C75.4733 100.792 76.3313 100.623 77.2846 100.623C78.0733 100.623 78.8013 100.757 79.4686 101.026C80.1446 101.286 80.7253 101.667 81.2106 102.17C81.7046 102.664 82.0903 103.279 82.3676 104.016C82.645 104.744 82.7836 105.576 82.7836 106.512C82.7836 106.876 82.7446 107.119 82.6666 107.24C82.5886 107.361 82.4413 107.422 82.2246 107.422H73.4236C73.4496 108.254 73.5623 108.978 73.7616 109.593C73.9696 110.208 74.2556 110.724 74.6196 111.14C74.9836 111.547 75.417 111.855 75.9196 112.063C76.4223 112.262 76.9856 112.362 77.6096 112.362C78.1903 112.362 78.6886 112.297 79.1046 112.167C79.5293 112.028 79.8933 111.881 80.1966 111.725C80.5 111.569 80.7513 111.426 80.9506 111.296C81.1586 111.157 81.3363 111.088 81.4836 111.088C81.6743 111.088 81.8216 111.162 81.9256 111.309L82.5756 112.154Z" fill="white"/>
</g>
</g>
<defs>
<filter id="filter0_d_225_76" x="-64" y="-40" width="333" height="263" filterUnits="userSpaceOnUse" color-interpolation-filters="sRGB">
<feFlood flood-opacity="0" result="BackgroundImageFix"/>
<feColorMatrix in="SourceAlpha" type="matrix" values="0 0 0 0 0 0 0 0 0 0 0 0 0 0 0 0 0 0 127 0" result="hardAlpha"/>
<feOffset dy="24"/>
<feGaussianBlur stdDeviation="32"/>
<feColorMatrix type="matrix" values="0 0 0 0 0 0 0 0 0 0 0 0 0 0 0 0 0 0 0.04 0"/>
<feBlend mode="normal" in2="BackgroundImageFix" result="effect1_dropShadow_225_76"/>
<feBlend mode="normal" in="SourceGraphic" in2="effect1_dropShadow_225_76" result="shape"/>
</filter>
<linearGradient id="paint0_linear_225_76" x1="205" y1="135" x2="106.046" y2="-55.1782" gradientUnits="userSpaceOnUse">
<stop stop-color="#4481EB"/>
<stop offset="1" stop-color="#04BEFE"/>
</linearGradient>
<clipPath id="clip0_225_76">
<rect width="205" height="135" fill="white"/>
</clipPath>
<clipPath id="clip1_225_76">
<rect width="205" height="135" fill="white"/>
</clipPath>
<clipPath id="clip2_225_76">
<rect width="200.62" height="200.62" fill="white" transform="translate(-89.1729 90.6176) rotate(-38.4642)"/>
</clipPath>
</defs>
</svg>
